<!-- icon666.com - MILLIONS vector ICONS FREE --><svg id="Capa_1" enable-background="new 0 0 510 510" viewBox="0 0 510 510" xmlns="http://www.w3.org/2000/svg" xmlns:xlink="http://www.w3.org/1999/xlink"><linearGradient id="SVGID_1_" gradientUnits="userSpaceOnUse" x1="79.143" x2="545.296" y1="102.159" y2="568.312"><stop offset="0" stop-color="#26a6fe"/><stop offset="1" stop-color="#192a7d"/></linearGradient><linearGradient id="lg1"><stop offset="0" stop-color="#192a7d" stop-opacity="0"/><stop offset="1" stop-color="#192a7d"/></linearGradient><linearGradient id="SVGID_2_" gradientUnits="userSpaceOnUse" x1="348.771" x2="269.238" xlink:href="#lg1" y1="367.517" y2="287.984"/><linearGradient id="SVGID_3_" gradientUnits="userSpaceOnUse" x1="246.107" x2="246.107" xlink:href="#lg1" y1="369.094" y2="486.837"/><linearGradient id="lg2"><stop offset="0" stop-color="#a2e62e"/><stop offset="1" stop-color="#02905d"/></linearGradient><linearGradient id="SVGID_4_" gradientUnits="userSpaceOnUse" x1="246.148" x2="610.895" xlink:href="#lg2" y1="22.1" y2="386.846"/><linearGradient id="lg3"><stop offset="0" stop-color="#02905d" stop-opacity="0"/><stop offset=".4554" stop-color="#028a58" stop-opacity=".455"/><stop offset="1" stop-color="#017b4e"/></linearGradient><linearGradient id="SVGID_5_" gradientUnits="userSpaceOnUse" x1="454.344" x2="392.384" xlink:href="#lg3" y1="230.898" y2="168.939"/><linearGradient id="SVGID_6_" gradientUnits="userSpaceOnUse" x1="54.726" x2="415.488" xlink:href="#lg2" y1="248.828" y2="609.591"/><linearGradient id="SVGID_7_" gradientUnits="userSpaceOnUse" x1="132.22" x2="240.844" xlink:href="#lg2" y1="109.481" y2="218.105"/><linearGradient id="SVGID_8_" gradientUnits="userSpaceOnUse" x1="207.051" x2="207.051" xlink:href="#lg3" y1="384.536" y2="513.86"/><linearGradient id="SVGID_9_" gradientUnits="userSpaceOnUse" x1="260.61" x2="171.97" xlink:href="#lg3" y1="469.477" y2="380.837"/><linearGradient id="lg4"><stop offset="0" stop-color="#eaf6ff"/><stop offset=".2575" stop-color="#dce8fa"/><stop offset=".7423" stop-color="#b8c4ed"/><stop offset="1" stop-color="#a2aee6"/></linearGradient><linearGradient id="SVGID_10_" gradientUnits="userSpaceOnUse" x1="324.357" x2="434.516" xlink:href="#lg4" y1="18.31" y2="280.592"/><linearGradient id="lg5"><stop offset="0" stop-color="#8795de" stop-opacity="0"/><stop offset=".4678" stop-color="#7d8ddc" stop-opacity=".468"/><stop offset="1" stop-color="#6c7fd8"/></linearGradient><linearGradient id="SVGID_11_" gradientTransform="matrix(0 1 -1 0 444.095 -254.278)" gradientUnits="userSpaceOnUse" x1="473.64" x2="516.383" xlink:href="#lg5" y1="153.456" y2="196.199"/><linearGradient id="SVGID_12_" gradientTransform="matrix(0 1 -1 0 444.095 -254.278)" gradientUnits="userSpaceOnUse" x1="305.288" x2="323.93" xlink:href="#lg5" y1="84.3" y2="102.942"/><linearGradient id="SVGID_13_" gradientTransform="matrix(0 1 -1 0 444.095 -254.278)" gradientUnits="userSpaceOnUse" x1="404.484" x2="423.125" xlink:href="#lg5" y1="-14.896" y2="3.746"/><linearGradient id="SVGID_14_" gradientUnits="userSpaceOnUse" x1="66.281" x2="129.485" xlink:href="#lg4" y1="349.506" y2="499.99"/><linearGradient id="SVGID_15_" gradientUnits="userSpaceOnUse" x1="72.718" x2="42.439" xlink:href="#lg5" y1="437.282" y2="467.561"/><linearGradient id="SVGID_16_" gradientUnits="userSpaceOnUse" x1="111.954" x2="311.347" y1="232.901" y2="432.294"><stop offset="0" stop-color="#fee45a"/><stop offset="1" stop-color="#fe860a"/></linearGradient><linearGradient id="lg6"><stop offset="0" stop-color="#fe860a" stop-opacity="0"/><stop offset="1" stop-color="#fe7701"/></linearGradient><linearGradient id="SVGID_17_" gradientUnits="userSpaceOnUse" x1="302.83" x2="45.736" xlink:href="#lg6" y1="320.3" y2="137.641"/><linearGradient id="SVGID_18_" gradientUnits="userSpaceOnUse" x1="328.05" x2="170.744" xlink:href="#lg6" y1="264.687" y2="430.589"/><linearGradient id="SVGID_19_" gradientUnits="userSpaceOnUse" x1="194.875" x2="194.875" xlink:href="#lg6" y1="386.14" y2="431.288"/><linearGradient id="SVGID_20_" gradientUnits="userSpaceOnUse" x1="135.025" x2="206.059" xlink:href="#lg4" y1="215.822" y2="286.856"/><g><g><path d="m415.639 98.864c86.721 100.063 74.105 199.968 74.105 199.968-13.592 95.65-82.178 173.593-172.722 200.795 0 0-46.265 8.442-70.92 8.442-78.466 0-193.416-91.989-193.416-91.989-32.996-41.877-52.686-94.73-52.686-152.182 0-135.919 110.184-246.103 246.102-246.103 0 0 110.988 13.512 169.537 81.069z" fill="url(#SVGID_1_)"/><path d="m93.412 445.33c40.582 26.934 103.736 62.74 152.691 62.74 24.655 0 70.919-8.442 70.919-8.442 90.544-27.202 159.13-105.145 172.722-200.795 0 0 11.514-91.247-63.16-186.675z" fill="url(#SVGID_2_)"/><path d="m12.687 342.071c9.064 27.073 22.698 52.052 39.999 74.01 0 0 114.951 91.989 193.416 91.989 24.655 0 70.92-8.442 70.92-8.442 76.455-22.969 137.252-82.118 162.505-157.556h-466.84z" fill="url(#SVGID_3_)"/><path d="m246.102 17.795h-.078c-14.289.008-25.98 11.705-25.98 25.994 0 19.757 16.016 35.773 35.773 35.773 20.752 0 37.575 16.823 37.575 37.575 0 21.669 8.608 42.451 23.93 57.773l59.626 59.626c6.089 6.089 15.96 6.089 22.048 0 9.822-9.822 26.615-2.866 26.615 11.024v48.858c0 17.79 14.421 32.211 32.211 32.211 16.085 0 29.646-11.873 31.913-27.798 1.625-11.411 2.468-23.074 2.468-34.934.002-135.918-110.182-246.102-246.101-246.102z" fill="url(#SVGID_4_)"/><path d="m340.577 198.165 36.372 36.372c6.088 6.089 15.96 6.089 22.048 0 9.821-9.822 26.615-2.866 26.615 11.024v48.858c0 17.79 14.421 32.211 32.211 32.211 16.085 0 29.646-11.873 31.913-27.798 1.625-11.411 2.468-23.074 2.468-34.934 0-60.642-21.947-116.15-58.314-159.047z" fill="url(#SVGID_5_)"/><path d="m52.686 416.081c45.064 57.195 114.95 93.919 193.416 93.919 24.655 0 48.463-3.627 70.919-10.376 45.009-13.528 59.451-70.042 26.219-103.274-11.625-11.625-27.392-18.156-43.833-18.156h-24.33c-18.496 0-36.234-7.347-49.313-20.426-11.715-11.715-18.297-27.605-18.297-44.172 0-16.568-6.582-32.457-18.297-44.172l-19.54-19.54c-7.985-7.985-7.985-20.931 0-28.916 11.466-11.467 5.66-31.079-10.2-34.456l-25.246-5.375c-25.811-5.495-50.124 14.187-50.124 40.576 0 20.945 8.321 41.033 23.131 55.844 11.142 11.142 17.401 26.253 17.401 42.01 0 15.757-6.259 30.868-17.401 42.01z" fill="url(#SVGID_6_)"/><circle cx="154.095" cy="131.356" fill="url(#SVGID_7_)" r="36.352"/><path d="m107.191 361.576-54.505 54.505c45.064 57.195 114.95 93.919 193.416 93.919 24.655 0 48.463-3.627 70.919-10.377 45.009-13.527 59.451-70.041 26.219-103.274-11.625-11.625-27.392-18.156-43.833-18.156h-24.33c-18.496 0-36.234-7.348-49.313-20.426-4.646-4.646-8.469-9.955-11.41-15.695h-94.195c-2.959 7.228-7.338 13.874-12.968 19.504z" fill="url(#SVGID_8_)"/></g><path d="m317.021 499.623c45.009-13.527 59.451-70.042 26.219-103.274-11.625-11.625-27.392-18.156-43.833-18.156h-24.33c-18.496 0-36.234-7.347-49.313-20.426-7.943-7.943-13.517-17.808-16.289-28.5l-122.416 122.416c42.895 36.368 98.401 58.317 159.043 58.317 24.656 0 48.463-3.627 70.919-10.377z" fill="url(#SVGID_9_)"/><g><g><path d="m293.217 275.826 127.983-127.984 25.923 25.924c11.318 11.318 30.682 5.504 33.893-10.177l28.564-139.452c2.893-14.125-9.592-26.61-23.717-23.717l-139.452 28.563c-15.681 3.212-21.495 22.575-10.177 33.893l25.924 25.924-127.984 127.983c-7.554 7.554-7.554 19.802 0 27.357l31.686 31.686c7.555 7.554 19.803 7.554 27.357 0z" fill="url(#SVGID_10_)"/><path d="m293.217 275.826 127.983-127.984-59.042-59.042-127.984 127.983c-7.554 7.554-7.554 19.802 0 27.357l31.686 31.686c7.555 7.554 19.803 7.554 27.357 0z" fill="url(#SVGID_11_)"/><path d="m416.43 34.529-54.275 54.275-25.923-25.924c-11.311-11.322-5.506-30.684 10.183-33.893l60.376-12.369c3.495-.716 7.117.371 9.64 2.894 4.146 4.147 4.146 10.87-.001 15.017z" fill="url(#SVGID_12_)"/><path d="m447.121 173.768-25.924-25.924 54.275-54.275c4.147-4.147 10.87-4.147 15.017 0 2.523 2.523 3.61 6.144 2.894 9.64l-12.369 60.376c-3.209 15.689-22.572 21.495-33.893 10.183z" fill="url(#SVGID_13_)"/></g></g><g><g><path d="m166.664 402.387-76.789 76.789c-7.555 7.555-19.808 7.555-27.363 0l-31.688-31.688c-7.555-7.555-7.555-19.808 0-27.363l76.789-76.789z" fill="url(#SVGID_14_)"/><path d="m166.664 402.387-76.789 76.789c-7.555 7.555-19.808 7.555-27.363 0l-31.688-31.688c-7.555-7.555-7.555-19.808 0-27.363l76.789-76.789z" fill="url(#SVGID_15_)"/></g></g><g><g><path d="m310.355 421.398h-230.96c-5.188 0-9.394-4.206-9.394-9.394v-192.363c0-5.188 4.206-9.394 9.394-9.394h230.96c5.188 0 9.394 4.206 9.394 9.394v192.363c0 5.188-4.206 9.394-9.394 9.394z" fill="url(#SVGID_16_)"/><path d="m319.749 219.64v192.365c0 5.186-4.207 9.393-9.392 9.393h-30.655l-151.304-151.304v-59.847h181.959c5.186 0 9.392 4.207 9.392 9.393z" fill="url(#SVGID_17_)"/><path d="m310.355 210.246h-65.62c5.188 0 9.394 4.206 9.394 9.394v192.363c0 5.188-4.206 9.394-9.394 9.394h65.62c5.188 0 9.394-4.206 9.394-9.394v-192.362c0-5.189-4.206-9.395-9.394-9.395z" fill="url(#SVGID_18_)"/><path d="m70.001 370.469v41.535c0 5.188 4.206 9.394 9.394 9.394h230.96c5.188 0 9.394-4.206 9.394-9.394v-41.535z" fill="url(#SVGID_19_)"/></g><path d="m138.04 271.703.184.112c4.223 2.564 9.532 2.521 13.712-.112 4.272-2.58 9.622-2.58 13.895 0 4.272 2.58 9.622 2.58 13.895 0h.001c1.98-1.146 4.171-1.171 6.377-.757 2.517.472 4.854-1.415 4.854-3.975v-54.814c0-1.825-1.48-3.305-3.305-3.305h-57.541c-1.825 0-3.305 1.48-3.305 3.305v54.736c0 2.545 2.315 4.451 4.816 3.982 2.228-.418 4.439-.373 6.417.828z" fill="url(#SVGID_20_)"/></g></g></svg>